HIERARCHY
ROOT simHips
{
  OFFSET 97.9713 99.8567 -9.0573
  CHANNELS 6 Xposition Yposition Zposition Zrotation Xrotation Yrotation
  JOINT simSpine
  {
    OFFSET -0.000355721 21.3001 -0.016921
    CHANNELS 3 Zrotation Xrotation Yrotation
    JOINT simLeftArm
    {
      OFFSET 13.5181 21.3012 0
      CHANNELS 3 Zrotation Xrotation Yrotation
      JOINT simLeftForeArm
      {
        OFFSET 24.5783 0 0
        CHANNELS 3 Zrotation Xrotation Yrotation
        JOINT simLeftHand
        {
          OFFSET 24.5783 0 0
          CHANNELS 3 Zrotation Xrotation Yrotation
          End Site
          {
            OFFSET 7.32568 1.52588e-05 0.0169305
          }
        }
      }
    }
    JOINT simHead
    {
      OFFSET 0 27.4458 -0.00489235
      CHANNELS 3 Zrotation Xrotation Yrotation
      End Site
      {
        OFFSET 0 0 0
      }
    }
    JOINT simRightArm
    {
      OFFSET -13.5174 21.3012 0
      CHANNELS 3 Zrotation Xrotation Yrotation
      JOINT simRightForeArm
      {
        OFFSET -24.5783 0 0
        CHANNELS 3 Zrotation Xrotation Yrotation
        JOINT simRightHand
        {
          OFFSET -24.5783 0 0
          CHANNELS 3 Zrotation Xrotation Yrotation
          End Site
          {
            OFFSET -7.32568 1.52588e-05 0.0169305
          }
        }
      }
    }
  }
  JOINT simRightUpLeg
  {
    OFFSET -8.44614 -9.41038 0.835684
    CHANNELS 3 Zrotation Xrotation Yrotation
    JOINT simRightLeg
    {
      OFFSET 0 -40.9639 0
      CHANNELS 3 Zrotation Xrotation Yrotation
      JOINT simRightFoot
      {
        OFFSET 0 -40.9639 0
        CHANNELS 3 Zrotation Xrotation Yrotation
        End Site
        {
          OFFSET 0.50614 -9.67405 14.6709
        }
      }
    }
  }
  JOINT simLeftUpLeg
  {
    OFFSET 8.44614 -9.41038 0.835684
    CHANNELS 3 Zrotation Xrotation Yrotation
    JOINT simLeftLeg
    {
      OFFSET 0 -40.9639 0
      CHANNELS 3 Zrotation Xrotation Yrotation
      JOINT simLeftFoot
      {
        OFFSET 0 -40.9639 0
        CHANNELS 3 Zrotation Xrotation Yrotation
        End Site
        {
          OFFSET -0.50614 -9.67405 14.6709
        }
      }
    }
  }
}
MOTION
Frames:	27
Frame Time:	0.0333333
97.9713 99.8567 -9.0573 0 0 -0 0 0 -0 -6.83019e-06 -1.70755e-06 -1.53679e-05 7.25708e-06 1.70755e-06 -0.000144291 -8.00413e-08 1.34939e-14 -9.65935e-06 1.70755e-06 0 -0 6.83019e-06 -8.53773e-07 5.12264e-06 -6.83188e-06 -0.0065167 -1.48887e-05 6.14445e-10 6.83019e-06 -0.00514913 2.71572 -5.98007 0.0533503 7.65354e-05 7.47167 -0.053014 -2.70977 -1.48992 -0.0705815 -4.3106 -1.7913 -0.0673817 -4.92717e-05 0.000948793 3.52704e-07 4.31065 1.79035 -0.0673888 
97.9327 99.7942 -9.10164 0.0880489 -0.457627 0.281751 -0.177554 0.592626 -0.514332 -0.0754541 0.086017 -0.0533435 -0.0421698 -0.0198704 -0.000144291 -0.209547 0.0945732 0.116619 0.12054 -0.139801 -0.286873 0.121665 0.125925 0.153471 0.00290004 -0.0065167 7.73549e-05 0.0317728 0.0626749 -0.00514913 1.80466 -9.42149 0.759698 0.984694 15.6968 -0.0796774 -1.15498 -4.92411 0.718744 -4.25074 -1.80198 -0.683199 -0.262017 0.934939 -0.0305696 4.29069 1.35566 0.284665 
97.7813 99.8099 -9.04108 -0.0169837 -0.879163 0.981841 -0.0652723 0.884621 -1.18084 -0.409605 0.258242 -0.444064 -0.043931 -0.020781 -0.000144291 -0.253195 -0.0986236 -0.0146482 -0.0204339 0.273537 -0.710804 0.246696 0.4761 0.0655445 -0.041279 -0.00651669 0.0912103 0.106302 0.194043 0.00167348 1.12891 -10.9957 1.95187 1.60023 20.0613 -0.17416 -0.802323 -5.771 0.224968 -4.03912 -1.31762 -1.1016 -0.267908 0.942745 -0.0312841 4.261 1.32714 -0.00325492 
97.5364 99.8859 -8.84596 -0.296339 -1.11902 1.97181 0.303934 0.756939 -1.84449 -0.971395 0.712542 -1.17662 -0.027983 -0.0231101 -0.000144291 -0.441192 -0.0929096 0.0482232 -0.450614 1.04904 -1.46483 0.3844 0.853558 -0.278918 -0.0713399 -0.00651668 0.158804 0.158717 0.236624 0.0719819 0.637465 -10.5766 2.74763 1.49779 19.3925 -0.255592 -4.23997 -5.32338 -4.16455 -3.71231 -0.52923 -1.70022 0.00493829 0.125061 0.00308595 4.39867 1.69668 -0.436773 
97.1996 99.9845 -8.53466 -0.524464 -1.11025 2.92936 0.582971 0.291125 -2.28004 -1.42547 1.19768 -1.98633 -0.0354173 -0.0254291 -0.000144291 -0.912165 0.471904 -0.124311 -0.863173 1.7864 -2.43296 0.542379 0.937203 -0.744527 -0.0490926 -0.00651669 0.110489 0.277659 0.342147 0.132553 0.308318 -8.25408 3.05921 0.730158 13.9921 -0.179647 -6.1151 -2.92022 -5.94591 -3.3451 -0.322253 -1.97848 0.208662 -8.96232e-05 0.0297652 4.1058 1.60293 -1.02821 
96.7699 100.012 -8.19921 -0.548642 -0.926537 3.40817 0.51072 -0.274721 -2.31258 -1.53008 1.35834 -2.506 -0.0494065 -0.0234217 -0.000144291 -1.14445 0.956768 -0.29957 -1.04082 2.10395 -3.44265 0.680906 0.825242 -1.10903 -0.0344197 -0.0065167 0.078957 0.349857 0.483056 0.114954 0.137462 -4.8069 3.88671 -0.291577 6.11509 -0.105879 -4.31745 1.89563 -3.34829 -3.10745 -0.330593 -2.13598 0.332012 0.0014782 0.0472414 4.02895 1.45803 -1.32344 
96.282 99.994 -7.94008 -0.456327 -0.557285 3.18174 0.270102 -0.823424 -1.72893 -1.41827 1.1042 -2.71496 -0.024129 -0.0113228 -0.000144291 -1.04719 0.703157 -0.0809058 -1.23692 1.9094 -4.5135 0.723612 0.502716 -1.39056 -0.042664 -0.00684173 0.0973291 0.418739 0.320064 0.108878 0.243151 -3.65074 4.39376 -0.685203 3.73625 -0.117563 -3.95917 1.57712 -2.06501 -2.84526 -0.584526 -1.91444 0.20852 0.0260477 0.0261446 3.97944 1.33047 -1.27475 
95.765 100.006 -7.72248 -0.409652 -0.279155 2.57269 0.134942 -1.15266 -0.974286 -1.40602 0.684486 -2.53174 -0.0317746 -0.0150679 -0.000144291 -0.843669 0.149503 -0.186772 -2.03179 1.53226 -5.80246 0.812136 0.166263 -1.39127 -0.0213382 -0.00716677 0.0506607 0.277677 0.0361737 0.116735 0.808252 -2.76889 2.83765 -1.11622 1.38886 -0.178966 -5.14613 2.15884 -0.279533 -2.58535 -0.720851 -1.85535 0.259772 -0.00172175 0.0323891 3.79822 1.24958 -0.672607 
95.2567 99.9646 -7.54745 -0.483106 -0.0235671 1.90319 0.249275 -1.41903 -0.292006 -1.65313 0.39057 -2.19119 -0.0886101 -0.0448596 -0.000144291 -0.812922 0.0809973 -0.163355 -3.19897 1.21931 -7.04319 0.918327 0.164397 -1.18296 -0.0315786 -0.00756457 0.0724674 0.312373 -0.0254634 0.0462364 1.47567 -2.67247 2.92754 -1.4513 0.715557 -0.230268 -5.74815 2.18716 0.245392 -2.36096 -0.838212 -1.04986 0.600358 -0.0461321 0.0741146 3.56663 1.1515 -0.712158 
94.7558 99.9257 -7.39082 -0.580048 0.0766183 1.58907 0.449953 -1.47385 -0.00228152 -1.97734 0.138137 -1.81655 -0.179428 0.220856 -0.000144292 -1.04977 -0.113186 0.00227762 -4.393 1.01394 -8.02511 0.887752 0.356066 -0.888875 -0.0294413 -0.00813214 0.0679087 0.477687 0.370438 0.141996 2.00108 -2.34258 3.45155 -1.77692 0.111309 -0.268308 -5.33631 1.98171 0.21084 -1.92506 -1.18961 -0.350435 0.615753 0.638874 0.0504856 3.25137 0.729933 -0.939896 
94.2603 99.8716 -7.28215 -0.680217 0.189108 1.64034 0.660502 -1.49071 0.0427667 -2.23531 -0.0712726 -1.64028 -0.317656 1.00093 -0.000144313 -1.03192 -1.0072 -0.0825099 -5.27919 0.808242 -8.83605 0.703476 0.507757 -0.7412 -0.0588075 -0.00231185 0.131993 0.534308 0.266147 0.178307 2.57821 -2.32618 3.62917 -2.12907 0.0453244 -0.327406 -5.20595 1.65592 0.118518 -1.3917 -1.8292 -0.0157396 0.410911 1.73051 0.0596316 3.0742 0.345711 -1.19339 
93.7467 99.7952 -7.22768 -0.686459 0.248537 1.85534 0.71767 -1.36387 0.19505 -2.40216 -0.0293949 -1.78206 -0.326465 1.0502 -0.000144315 -0.993061 -1.10759 -0.104795 -5.79291 0.676997 -9.87658 0.5849 0.31983 -0.891432 -0.0743844 0.004192 0.166209 0.245624 -0.0478899 0.166841 3.09876 -2.29254 4.33589 -2.45468 0.067608 -0.39969 -5.6693 1.34608 -0.604195 -0.830257 -2.46296 0.173774 -0.0464903 2.82644 0.0155402 3.05639 0.0686446 -1.39732 
93.2491 99.7814 -7.22293 -0.731508 0.22311 2.20425 0.791791 -1.07998 0.241492 -2.53057 0.0617857 -2.027 -0.284249 0.811252 -0.000144305 -1.025 -0.804943 -0.0740904 -6.0908 0.579351 -10.8015 0.536887 0.186602 -1.02967 -0.0691774 0.00846023 0.152011 0.237744 -0.439959 0.099437 3.54037 -2.17148 4.48692 -2.54015 -0.00106519 -0.442812 -6.46571 1.25898 -0.892435 -0.236055 -3.25984 0.306899 -0.510209 4.5626 -0.0190022 3.1878 -0.430783 -1.66576 
92.8224 99.7845 -7.25141 -0.678156 0.217367 2.47854 0.738466 -0.78537 0.374238 -2.6692 0.206719 -2.27258 -0.210326 0.39522 -0.000144294 -0.981269 -0.488893 -0.190371 -6.06391 0.408015 -11.57 0.591365 0.123752 -1.21619 -0.093135 0.00852547 0.201797 0.316023 -0.337231 0.101418 3.78058 -2.14696 4.57599 -2.55805 0.027017 -0.458696 -6.92509 1.21699 -1.10844 0.313798 -5.28238 0.505743 -1.27407 8.03621 -0.107218 3.87293 -1.12613 -1.71519 
92.5004 99.8067 -7.28119 -0.534224 0.216816 2.49438 0.571464 -0.542142 0.574347 -2.79194 0.0938406 -2.4354 -0.20934 0.389064 -0.000144294 -0.913858 -0.487704 -0.227867 -5.87544 0.356108 -12.0316 0.712665 -0.026475 -1.07506 -0.0556515 -0.00212432 0.117173 0.392568 -0.219545 0.160402 3.84659 -2.17222 4.68191 -2.56307 0.0790158 -0.466171 -7.22463 1.17654 -1.14456 0.630553 -6.44589 0.661208 -1.90934 10.2806 -0.154742 3.95993 -1.57233 -0.718105 
92.2967 99.8331 -7.25973 -0.409478 0.259695 2.37955 0.433187 -0.451178 0.715161 -2.90144 0.275799 -2.35113 -0.254186 0.641128 -0.0001443 -0.902484 -0.725608 -0.467327 -5.74142 0.397594 -12.3277 0.898491 0.101819 -0.813249 -0.0979132 0.00892213 0.207014 0.402071 -0.326892 0.128177 3.84919 -2.24711 4.99217 -2.54454 0.0992706 -0.462009 -7.37134 1.186 -1.27677 0.719775 -7.22766 1.1512 -2.13384 11.2324 -0.175876 3.16616 -1.82227 0.693056 
92.2252 99.8247 -7.17685 -0.404599 0.351929 2.33512 0.441285 -0.557841 0.678536 -3.0107 0.479761 -2.1779 -0.243806 0.58192 -0.000144298 -1.07701 -0.682593 -0.333559 -5.56457 0.591085 -12.5233 1.02892 0.123879 -0.445861 -0.0944058 0.0074384 0.19666 0.438683 -0.258736 0.150393 3.91658 -2.22672 5.07617 -2.59177 0.0207905 -0.473774 -7.3333 1.20743 -1.36841 0.524542 -6.61636 1.21684 -1.82025 9.98247 -0.145716 3.75625 -1.15092 0.680612 
92.2374 99.8101 -7.05255 -0.454247 0.631856 2.26154 0.473095 -0.924546 0.647214 -3.10821 0.593776 -2.05176 -0.224281 0.471698 -0.000144296 -1.23781 -0.44847 -0.388968 -5.24915 0.912178 -12.5009 1.1471 0.266486 -0.0977851 -0.104851 0.00826245 0.217057 0.493219 -0.193132 0.175148 3.97596 -2.51176 4.79643 -2.63306 0.134464 -0.479992 -7.23323 1.06212 -1.03967 0.223083 -5.55293 1.27534 -1.1042 7.40122 -0.0900413 3.16027 -0.637819 0.379719 
92.2908 99.8126 -6.90573 -0.439916 0.923388 2.2823 0.387146 -1.32863 0.532693 -3.12969 0.622135 -1.98289 -0.213245 0.410123 -0.000144295 -1.24929 -0.388361 -0.392846 -4.79085 1.16158 -12.2606 1.30216 0.284726 0.16639 -0.147129 0.0118879 0.307663 0.473109 -0.154354 0.129798 3.89429 -2.72615 4.58742 -2.63622 0.000864436 -0.478156 -7.12405 1.07976 -0.838655 -0.251239 -4.3007 1.73294 -0.300537 4.35429 0.00943651 2.62982 0.221612 -0.185997 
92.3615 99.812 -6.77248 -0.356914 1.12422 2.53858 0.189055 -1.64695 0.221955 -3.12235 0.671056 -1.92554 -0.176587 0.203362 -0.000144292 -1.19863 -0.128657 -0.454927 -4.26017 1.34749 -11.9774 1.51853 0.236053 0.250481 -0.16567 0.0139206 0.346477 0.5488 -0.054213 0.249864 3.73267 -2.8387 4.41982 -2.63503 -0.000806841 -0.460178 -6.82475 1.10501 -1.03297 -0.662718 -3.68356 1.77461 0.126824 2.99405 0.0406208 2.50161 0.536621 -0.367641 
92.4588 99.8073 -6.64823 -0.316975 1.29966 2.86938 0.0646757 -1.92997 -0.0384976 -3.15411 0.858581 -1.99988 -0.161873 0.121657 -0.000144291 -1.22346 0.0401449 -0.414882 -3.8911 1.46134 -11.6697 1.66754 0.489031 0.10693 -0.166491 0.0155213 0.34561 0.569535 0.0331003 0.217567 3.6088 -3.0121 3.99071 -2.68264 0.0899651 -0.452118 -6.5984 1.03445 -0.985259 -1.02528 -3.88556 1.8982 0.585947 3.09334 0.0823137 2.2773 0.295198 -0.793592 
92.5816 99.8082 -6.5646 -0.311665 1.62698 3.13308 0.0193447 -2.34556 -0.224725 -3.21577 1.11654 -2.08379 -0.155556 0.0866843 -0.000144291 -1.36707 0.132429 -0.357752 -3.65587 1.62219 -11.1357 1.65923 0.634844 -0.0930112 -0.154724 0.0167555 0.31578 0.666111 0.148519 0.218183 3.48433 -3.33823 3.47771 -2.68251 0.13196 -0.43162 -6.30724 0.974738 -0.825638 -1.12955 -4.18719 2.56858 0.629135 3.07672 -0.0166059 2.15835 0.0407512 -1.60745 
92.7182 99.7946 -6.49667 -0.339969 1.88474 3.31393 0.0326185 -2.62437 -0.397381 -3.29152 1.18219 -2.0249 -0.118807 -0.0607615 -0.000144291 -1.33597 0.383145 -0.482469 -3.4719 1.69706 -10.3822 1.57525 0.505484 -0.23658 -0.168171 0.0176885 0.338063 0.554441 0.0734852 0.180281 3.38516 -3.50622 3.06165 -2.6711 -0.00227554 -0.417912 -6.23568 0.967859 -0.671454 -1.22531 -4.42014 2.73724 0.695497 3.03413 -0.0948855 2.04012 -0.110699 -1.88744 
92.8418 99.7727 -6.4463 -0.387302 2.02968 3.49603 0.0818608 -2.73133 -0.558552 -3.37532 1.22118 -1.96904 -0.111196 -0.0569161 -0.000144291 -1.35476 0.276872 -0.459849 -3.34774 1.805 -9.62694 1.46023 0.451751 -0.403177 -0.20522 0.0183859 0.410665 0.460639 -0.053015 0.134196 3.31963 -3.66631 2.82255 -2.64234 0.0900268 -0.395517 -6.06218 0.916709 -0.684076 -1.29409 -4.51828 2.74509 0.731634 2.99016 -0.186211 2.0796 -0.170846 -1.96958 
92.9754 99.7731 -6.41097 -0.429097 2.08704 3.57755 0.15221 -2.80955 -0.586507 -3.50673 1.34224 -1.96677 -0.109225 -0.0556987 -0.000144291 -1.59739 0.373169 -0.343682 -3.16004 2.02477 -8.75323 1.37461 0.544549 -0.560425 -0.213458 0.0189134 0.421564 0.43443 -0.0102108 0.207929 3.278 -3.68107 2.6616 -2.66225 0.0284272 -0.394316 -5.90249 0.954045 -0.645293 -1.33979 -4.59095 2.60067 0.720187 3.03604 -0.189103 2.13633 -0.217029 -1.92219 
93.0991 99.7711 -6.39468 -0.465569 2.0658 3.59564 0.233021 -2.7868 -0.562779 -3.65271 1.62401 -1.88144 -0.104465 -0.0548493 -0.000144291 -1.92991 0.571361 -0.400501 -2.79073 2.30263 -7.59597 1.32741 0.635664 -0.655934 -0.205511 0.0193365 0.399522 0.474061 -0.023428 0.169671 3.23547 -3.63695 2.54077 -2.67925 -0.00015505 -0.395281 -5.84978 0.924487 -0.58122 -1.37643 -4.57202 2.61422 0.713922 3.04626 -0.192505 2.21368 -0.220678 -1.94615 
93.2323 99.7709 -6.3726 -0.49044 2.03781 3.47843 0.330108 -2.74439 -0.428316 -3.84127 1.83587 -1.7663 -0.100304 -0.053977 -0.000144291 -2.24009 0.70114 -0.440211 -2.32267 2.56491 -6.25634 1.30512 0.749773 -0.695439 -0.237926 0.0197205 0.466601 0.528819 0.0136428 0.163105 3.18262 -3.62664 2.56711 -2.67923 0.0786804 -0.396676 -5.74383 0.852129 -0.533445 -1.44738 -4.55011 2.61186 0.745667 3.1352 -0.178955 2.27817 -0.314157 -1.83874 
